Coordinates
version=1
nRows=15
nColumns=42
inDegrees=yes

Units are S.I. units (second, meters, Newtons, ...)
If the header above contains a line with 'inDegrees', this indicates whether rotational values are in degrees (yes) or radians (no).

endheader
time	pelvis_tilt	pelvis_list	pelvis_rotation	pelvis_tx	pelvis_ty	pelvis_tz	hip_flexion_r	hip_adduction_r	hip_rotation_r	knee_angle_r	knee_adduction_r	knee_angle_r_beta	ankle_angle_r	subtalar_angle_r	mtp_angle_r	hip_flexion_l	hip_adduction_l	hip_rotation_l	knee_angle_l	knee_adduction_l	knee_angle_l_beta	ankle_angle_l	subtalar_angle_l	mtp_angle_l	lumbar_extension	lumbar_bending	lumbar_rotation	arm_flex_r	arm_add_r	arm_rot_r	elbow_flex_r	pro_sup_r	wrist_flex_r	wrist_dev_r	arm_flex_l	arm_add_l	arm_rot_l	elbow_flex_l	pro_sup_l	wrist_flex_l	wrist_dev_l
      0.14000000	     16.71416614	     -0.33800901	      4.82529347	     -2.41085337	      0.88013871	      0.15292667	    -29.91938836	      4.11385614	    -39.73896093	     25.78387869	     -9.70568183	      0.45001358	     34.14792618	     38.10654400	     -9.54778224	     15.88030859	      4.25124293	    -14.40638647	     20.60565283	     -9.35600430	      0.35963649	     16.86417348	     31.26092488	     -9.54778224	    -41.26685355	      4.52004286	      1.97553756	     11.28810965	    -17.91556042	     -0.80761398	     47.15442521	     90.00000001	      0.00000000	      0.00000000	     -3.33589783	     -7.43724695	     -9.32576934	     33.02153419	     90.00000001	      0.00000000	      0.00000000
      0.15000000	     16.49927211	     -0.11265400	      4.65643522	     -2.39652598	      0.87975908	      0.15181158	    -29.92263972	      3.49635751	    -39.73443378	     27.01294165	    -10.26411491	      0.47146477	     32.52697850	     38.23770336	     -9.51311119	     15.97949906	      4.77404752	    -14.25608912	     22.00948230	     -9.94196712	      0.38413793	     16.61611191	     30.67566787	     -9.51311119	    -40.78264806	      4.09049962	      1.72447609	     10.80583141	    -17.73356855	     -0.76231020	     46.77462764	     90.00000001	      0.00000000	      0.00000000	     -3.67626054	     -7.42852530	     -9.63897980	     32.53014933	     90.00000001	      0.00000000	      0.00000000
      0.16000000	     16.30911434	      0.15646749	      4.59725752	     -2.38218796	      0.87972171	      0.15060420	    -29.92450560	      2.95147998	    -39.73257088	     28.14142267	    -10.84333649	      0.49116048	     30.01976626	     38.23166010	     -9.43902669	     15.97418520	      5.36410627	    -13.64264917	     23.48744912	    -10.41067017	      0.40993332	     16.32153742	     29.56660786	     -9.43902669	    -40.33073502	      3.66910973	      1.42062873	     10.28005446	    -17.46799171	     -0.86861360	     46.27506828	     90.00000001	      0.00000000	      0.00000000	     -3.74888233	     -7.39953713	    -10.25849113	     31.69556957	     90.00000001	      0.00000000	      0.00000000
      0.17000000	     16.19527325	      0.59167392	      4.50815896	     -2.36787364	      0.87989666	      0.14928340	    -29.92582979	      2.11661105	    -39.73225066	     29.61298881	    -11.27220024	      0.51684416	     28.33039419	     38.16157986	     -9.41960566	     15.88813177	      6.03113177	    -13.44807201	     25.05704912	    -10.85256119	      0.43732801	     16.25110016	     28.97863288	     -9.41960566	    -39.98534386	      3.09745242	      1.02263320	      9.65522758	    -17.19888115	     -0.89301959	     45.99780374	     90.00000001	      0.00000000	      0.00000000	     -3.98970376	     -7.49571850	    -10.43576842	     31.34192518	     90.00000001	      0.00000000	      0.00000000
      0.18000000	     16.18547993	      1.08946365	      4.42697182	     -2.35381953	      0.88063871	      0.14807983	    -29.92579500	      1.33138813	    -39.73424059	     30.92161117	    -11.89323694	      0.53968392	     24.61708471	     37.99072649	     -9.30466869	     15.46852899	      6.82736494	    -12.44199557	     26.39846863	    -11.04923928	      0.46074020	     16.08869791	     26.47458974	     -9.30466869	    -39.81470956	      2.44227148	      0.61560012	      9.10324397	    -16.82099013	     -1.24344297	     45.44625132	     90.00000001	      0.00000000	      0.00000000	     -3.78021088	     -7.55240712	    -11.27035373	     30.50359765	     90.00000001	      0.00000000	      0.00000000
      0.19000000	     16.28645195	      1.73340400	      4.28884078	     -2.33989101	      0.88160994	      0.14683149	    -29.92536687	      0.27744787	    -39.73658623	     32.56526206	    -12.41539888	      0.56837104	     21.52009375	     37.68432280	     -9.26213889	     14.91523282	      7.64046970	    -12.18510517	     27.63462969	    -11.27169550	      0.48231528	     16.24662311	     25.39394828	     -9.26213889	    -39.79886181	      1.65116254	      0.16650481	      8.47626739	    -16.51720906	     -1.27995734	     45.13443489	     90.00000001	      0.00000000	      0.00000000	     -3.76440502	     -7.70469005	    -11.51738633	     30.25441537	     90.00000001	      0.00000000	      0.00000000
      0.20000000	     16.48814191	      2.44977919	      4.19594742	     -2.32625438	      0.88293160	      0.14560817	    -29.92425664	     -0.82792681	    -39.73787084	     34.28691138	    -12.91303072	      0.59841949	     17.93859058	     37.22609980	     -9.16086674	     14.02155803	      8.56395179	    -11.19139846	     28.58394053	    -11.15622855	      0.49888388	     16.33066755	     23.25740657	     -9.16086674	    -39.93915880	      0.81961043	     -0.36313282	      7.91137186	    -16.14578252	     -1.34628560	     44.75340235	     90.00000001	      0.00000000	      0.00000000	     -3.59639395	     -7.90449716	    -11.96567626	     29.92857335	     90.00000001	      0.00000000	      0.00000000
      0.21000000	     16.81240764	      3.21954781	      4.07636829	     -2.31282557	      0.88454167	      0.14433194	    -29.92209230	     -2.03619641	    -39.73743613	     36.16774110	    -13.39581766	      0.63124617	     14.19244528	     36.43134718	     -9.10307704	     12.90495577	      9.48928457	    -10.83928478	     29.18823753	    -11.18676516	      0.50943085	     16.68073764	     22.29888798	     -9.10307704	    -40.26334162	     -0.03902036	     -0.90690719	      7.29472958	    -15.88090821	     -1.28928659	     44.47651551	     90.00000001	      0.00000000	      0.00000000	     -3.37772869	     -8.14680805	    -12.12161695	     29.89282119	     90.00000001	      0.00000000	      0.00000000
      0.22000000	     17.24431887	      4.07783094	      3.93206313	     -2.29954918	      0.88636338	      0.14305573	    -29.91870070	     -3.38276603	    -39.73423391	     38.21731714	    -13.85291943	      0.66701802	     10.65568656	     35.41223841	     -9.06432662	     11.48992957	     10.49665796	    -10.70968710	     29.38308830	    -11.24212924	      0.51283164	     17.20745745	     21.71160218	     -9.06432662	    -40.72060060	     -0.96851986	     -1.45133970	      6.65565476	    -15.60759487	     -1.17014733	     44.23287908	     90.00000001	      0.00000000	      0.00000000	     -3.13271071	     -8.42636117	    -12.17487553	     29.96225397	     90.00000001	      0.00000000	      0.00000000
      0.23000000	     17.76604889	      4.92770784	      3.81800452	     -2.28645721	      0.88837868	      0.14169203	    -29.91384326	     -4.73952593	    -39.72657749	     40.35240499	    -14.24710322	      0.70428233	      7.10245040	     34.15124849	     -9.02705639	      9.84387797	     11.49072167	    -10.67045578	     29.27646879	    -11.29729174	      0.51097077	     17.80519819	     21.46809676	     -9.02705639	    -41.28919844	     -1.82039398	     -2.00916942	      5.99854749	    -15.35731781	     -0.97615308	     44.02436520	     90.00000001	      0.00000000	      0.00000000	     -2.85523807	     -8.70974119	    -12.15600955	     30.15794646	     90.00000001	      0.00000000	      0.00000000
      0.24000000	     18.39494522	      5.75689409	      3.71978775	     -2.27359289	      0.89051891	      0.14032768	    -29.90756726	     -6.06868013	    -39.71130159	     42.56546912	    -14.63184385	      0.74290758	      3.93346620	     32.79943907	     -8.99095210	      7.98309557	     12.44345228	    -10.81055897	     28.92193936	    -11.41334844	      0.50478307	     18.48324334	     21.68765313	     -8.99095210	    -41.99460517	     -2.61565958	     -2.56402096	      5.39410986	    -15.16466106	     -0.70139914	     43.87944193	     90.00000001	      0.00000000	      0.00000000	     -2.47796210	     -9.02909635	    -12.05834590	     30.51488917	     90.00000001	      0.00000000	      0.00000000
      0.25000000	     19.09712055	      6.51615535	      3.65985104	     -2.26086975	      0.89277549	      0.13892888	    -29.89563347	     -7.33209388	    -39.68860353	     44.79834310	    -14.92976744	      0.78187859	      1.10403835	     31.38589520	     -8.94778298	      5.96543230	     13.28492205	    -11.17234348	     28.35781364	    -11.57002555	      0.49493722	     19.24195221	     22.46941426	     -8.94778298	    -42.78274378	     -3.27530148	     -3.11945243	      4.74832666	    -15.03831433	     -0.26322183	     43.79282198	     90.00000001	      0.00000000	      0.00000000	     -2.11635133	     -9.34017833	    -11.82906883	     31.06388959	     90.00000001	      0.00000000	      0.00000000
      0.26000000	     19.90395504	      7.19294114	      3.56463697	     -2.24838726	      0.89507025	      0.13757352	    -29.87954798	     -8.55737451	    -39.65897809	     47.11856466	    -15.24153908	      0.82237409	     -0.17165096	     31.11892757	     -8.93623104	      3.83516915	     13.95646562	    -11.58256192	     27.83289809	    -11.59170141	      0.48577571	     19.96681558	     22.89330174	     -8.93623104	    -43.69735081	     -3.81681305	     -3.57572034	      4.20024313	    -14.89103020	     -0.07462295	     43.62669198	     90.00000001	      0.00000000	      0.00000000	     -1.54105283	     -9.57073457	    -11.73089465	     31.42317417	     90.00000001	      0.00000000	      0.00000000
      0.27000000	     20.76570200	      7.79038537	      3.48491142	     -2.23581104	      0.89739160	      0.13619883	    -29.85727216	     -9.69064059	    -39.62057598	     49.28191967	    -15.41544079	      0.86013176	     -2.11264436	     29.74014104	     -8.83788497	      1.60483170	     14.50863318	    -12.96100943	     26.91734679	    -12.04059196	      0.46979633	     21.14141985	     25.83289670	     -8.83788497	    -44.62271719	     -4.24602230	     -4.14023711	      3.47420495	    -15.04039366	      1.44320858	     43.85985923	     90.00000001	      0.00000000	      0.00000000	     -1.49154836	    -10.04621845	    -10.67940463	     32.79714717	     90.00000001	      0.00000000	      0.00000000
      0.28000000	     21.71430767	      8.32505432	      3.40613451	     -2.22362617	      0.89985973	      0.13489085	    -29.81829965	    -10.75445796	    -39.57756398	     51.39912292	    -15.61064636	      0.89708393	     -2.57517350	     30.04662981	     -8.82018320	     -0.85384615	     15.06737552	    -13.12789762	     26.01836224	    -12.09645872	      0.45410609	     21.86796694	     26.53971004	     -8.82018320	    -45.67794386	     -4.55553359	     -4.56023259	      2.94971690	    -14.90222942	      1.73159191	     43.72428824	     90.00000001	      0.00000000	      0.00000000	     -0.85519942	    -10.26800788	    -10.47235457	     33.24510145	     90.00000001	      0.00000000	      0.00000000
